# Blender v2.82 (sub 7) OBJ File: '19203.blend'
# www.blender.org
mtllib default.mtl
usemtl default
v 0.586259 0.457690 -0.561129
v 0.586259 0.457690 -0.541228
v 0.586259 0.459266 -0.551179
v 0.586259 0.453116 -0.532252
v 0.586259 0.458404 -0.528410
v 0.586259 0.458404 -0.573947
v 0.586259 0.453116 -0.570105
v 0.586259 0.449835 -0.519840
v 0.586259 0.463907 -0.563149
v 0.586259 0.449835 -0.582517
v 0.586259 0.445993 -0.525128
v 0.586259 0.463907 -0.539208
v 0.616925 0.449835 -0.519840
v 0.616925 0.458404 -0.573947
v 0.586259 0.445993 -0.577229
v 0.586259 0.439036 -0.514338
v 0.586259 0.465802 -0.551179
v 0.616925 0.463907 -0.539208
v 0.616925 0.458404 -0.528410
v 0.616925 0.439036 -0.514338
v 0.616925 0.463907 -0.563149
v 0.616925 0.449835 -0.582517
v 0.586259 0.439036 -0.588019
v 0.586259 0.437016 -0.520555
v 0.616925 0.465802 -0.551179
v 0.616925 0.457690 -0.541228
v 0.616925 0.445993 -0.525128
v 0.616925 0.459266 -0.551179
v 0.616925 0.457690 -0.561129
v 0.586259 0.437016 -0.581803
v 0.586259 0.427066 -0.512442
v 0.616925 0.427066 -0.512442
v 0.616925 0.453116 -0.532252
v 0.616925 0.437016 -0.520555
v 0.616925 0.453116 -0.570105
v 0.616925 0.439036 -0.588019
v 0.586259 0.427066 -0.589915
v 0.586259 0.427066 -0.518979
v 0.616925 0.445993 -0.577229
v 0.586259 0.427066 -0.583378
v 0.586259 0.417116 -0.520555
v 0.616925 0.415096 -0.514338
v 0.616925 0.427066 -0.518979
v 0.616925 0.437016 -0.581803
v 0.616925 0.427066 -0.589915
v 0.586259 0.415096 -0.588019
v 0.586259 0.415096 -0.514338
v 0.616925 0.417116 -0.520555
v 0.586259 0.417116 -0.581803
v 0.586259 0.408139 -0.525128
v 0.616925 0.404297 -0.519840
v 0.616925 0.408139 -0.525128
v 0.616925 0.427066 -0.583378
v 0.616925 0.415096 -0.588019
v 0.586259 0.408139 -0.577229
v 0.586259 0.404297 -0.519840
v 0.616925 0.417116 -0.581803
v 0.586259 0.404297 -0.582517
v 0.586259 0.401016 -0.532252
v 0.616925 0.395728 -0.528410
v 0.616925 0.401016 -0.532252
v 0.616925 0.408139 -0.577229
v 0.616925 0.404297 -0.582517
v 0.586259 0.401016 -0.570105
v 0.586259 0.395728 -0.528410
v 0.586259 0.395728 -0.573947
v 0.586259 0.396442 -0.541228
v 0.586259 0.390225 -0.539208
v 0.616925 0.396442 -0.541228
v 0.616925 0.401016 -0.570105
v 0.616925 0.395728 -0.573947
v 0.586259 0.396442 -0.561129
v 0.586259 0.394866 -0.551179
v 0.616925 0.390225 -0.539208
v 0.616925 0.394866 -0.551179
v 0.616925 0.390225 -0.563149
v 0.586259 0.388330 -0.551179
v 0.586259 0.390225 -0.563149
v 0.616925 0.396442 -0.561129
v 0.616925 0.388330 -0.551179
vt 0.519221 0.911466
vt 0.519948 0.916115
vt 0.519221 0.913849
vt 0.521331 0.918043
vt 0.519948 0.909200
vt 0.523235 0.919444
vt 0.521331 0.907272
vt 0.525474 0.920180
vt 0.523236 0.905871
vt 0.527827 0.920180
vt 0.618656 0.910757
vt 0.617928 0.915407
vt 0.617928 0.913024
vt 0.620039 0.908830
vt 0.618656 0.917673
vt 0.621943 0.907429
vt 0.620039 0.919601
vt 0.624182 0.906693
vt 0.525474 0.905135
vt 0.621943 0.921001
vt 0.530066 0.919444
vt 0.626535 0.906693
vt 0.527828 0.905135
vt 0.624182 0.921738
vt 0.628773 0.907429
vt 0.531970 0.918043
vt 0.626535 0.921738
vt 0.630678 0.908829
vt 0.530066 0.905871
vt 0.628774 0.921001
vt 0.533353 0.916115
vt 0.632061 0.910757
vt 0.531970 0.907272
vt 0.630678 0.919601
vt 0.534081 0.913849
vt 0.632788 0.913024
vt 0.533354 0.909200
vt 0.534081 0.911466
vt 0.632061 0.917673
vt 0.632788 0.915407
vt 0.342071 0.890827
vt 0.341438 0.887859
vt 0.342071 0.893210
vt 0.342798 0.895476
vt 0.343102 0.898497
vt 0.342799 0.888561
vt 0.343102 0.885539
vt 0.341437 0.896178
vt 0.345392 0.900182
vt 0.344182 0.897404
vt 0.344182 0.886633
vt 0.340563 0.890585
vt 0.816609 0.932783
vt 0.823774 0.932783
vt 0.816609 0.931098
vt 0.816609 0.920460
vt 0.816609 0.923186
vt 0.823774 0.920460
vt 0.816609 0.918141
vt 0.346085 0.898805
vt 0.345393 0.883855
vt 0.340563 0.893452
vt 0.816609 0.928779
vt 0.823774 0.928779
vt 0.823774 0.931098
vt 0.328690 0.932798
vt 0.335854 0.932798
vt 0.328690 0.930479
vt 0.823774 0.923186
vt 0.823774 0.918141
vt 0.348085 0.901068
vt 0.346086 0.885232
vt 0.335854 0.930479
vt 0.816609 0.926053
vt 0.823774 0.926053
vt 0.328224 0.901069
vt 0.323393 0.898805
vt 0.325393 0.901068
vt 0.330917 0.900183
vt 0.327985 0.899542
vt 0.318745 0.896178
vt 0.321489 0.897404
vt 0.317871 0.893452
vt 0.317871 0.890585
vt 0.320106 0.895476
vt 0.594701 0.921995
vt 0.587537 0.921995
vt 0.594701 0.924721
vt 0.348324 0.899541
vt 0.348086 0.882969
vt 0.328690 0.927753
vt 0.322700 0.900183
vt 0.320409 0.898497
vt 0.325632 0.899541
vt 0.330224 0.898805
vt 0.319379 0.893210
vt 0.587537 0.924721
vt 0.350916 0.901069
vt 0.348325 0.884496
vt 0.335854 0.927753
vt 0.333208 0.898498
vt 0.319379 0.890827
vt 0.318746 0.887859
vt 0.594701 0.927588
vt 0.350678 0.899541
vt 0.350678 0.884496
vt 0.328690 0.924886
vt 0.332128 0.897405
vt 0.320106 0.888561
vt 0.587537 0.927588
vt 0.353609 0.900183
vt 0.350917 0.882969
vt 0.335854 0.924886
vt 0.334872 0.896179
vt 0.333511 0.895477
vt 0.320410 0.885540
vt 0.594701 0.930314
vt 0.352916 0.898805
vt 0.352917 0.885233
vt 0.328690 0.922160
vt 0.334239 0.893211
vt 0.321490 0.886633
vt 0.587537 0.930314
vt 0.354820 0.897405
vt 0.353610 0.883855
vt 0.335854 0.922160
vt 0.335747 0.893453
vt 0.323394 0.885232
vt 0.322701 0.883855
vt 0.594701 0.932633
vt 0.355900 0.898498
vt 0.354821 0.886634
vt 0.328690 0.919841
vt 0.334239 0.890828
vt 0.325633 0.884496
vt 0.587537 0.932633
vt 0.356204 0.895477
vt 0.355901 0.885540
vt 0.335854 0.919841
vt 0.335747 0.890586
vt 0.325394 0.882969
vt 0.351382 0.932798
vt 0.358547 0.932798
vt 0.351382 0.930479
vt 0.357564 0.896179
vt 0.356204 0.888561
vt 0.351382 0.919841
vt 0.351382 0.922160
vt 0.358547 0.919841
vt 0.333512 0.888561
vt 0.327986 0.884496
vt 0.358547 0.930479
vt 0.356931 0.893211
vt 0.356931 0.890828
vt 0.358547 0.922160
vt 0.357565 0.887860
vt 0.332128 0.886633
vt 0.328225 0.882969
vt 0.358547 0.927753
vt 0.351382 0.924886
vt 0.334873 0.887860
vt 0.358440 0.893453
vt 0.330225 0.885233
vt 0.351382 0.927753
vt 0.330918 0.883855
vt 0.358547 0.924886
vt 0.358440 0.890586
vt 0.333208 0.885540
vn -1.0000 -0.0000 0.0000
vn 1.0000 0.0000 0.0000
vn 0.0000 0.5443 0.8389
vn 0.0000 0.6296 0.7769
vn 0.0000 0.8090 0.5878
vn 0.0000 0.8090 -0.5878
vn 0.0000 0.9335 -0.3587
vn 0.0000 0.6296 -0.7769
vn -0.0000 0.9660 0.2584
vn -0.0000 0.9334 0.3587
vn 0.0000 0.3587 0.9334
vn 0.0000 0.9660 -0.2584
vn 0.0000 0.5443 -0.8389
vn 0.0000 0.2584 0.9660
vn -0.0000 0.9986 -0.0527
vn -0.0000 0.9986 0.0527
vn 0.0000 0.3587 -0.9334
vn 0.0000 0.0527 0.9986
vn 0.0000 0.2584 -0.9660
vn 0.0000 -0.0527 0.9986
vn 0.0000 0.0527 -0.9986
vn 0.0000 -0.2584 0.9660
vn 0.0000 -0.0527 -0.9986
vn 0.0000 -0.3587 0.9334
vn 0.0000 -0.2584 -0.9660
vn 0.0000 -0.5443 0.8389
vn 0.0000 -0.3587 -0.9334
vn 0.0000 -0.6296 0.7769
vn 0.0000 -0.5443 -0.8389
vn 0.0000 -0.8090 0.5878
vn 0.0000 -0.6296 -0.7769
vn 0.0000 -0.8090 -0.5878
vn -0.0000 -0.9334 0.3587
vn 0.0000 -0.9660 0.2584
vn 0.0000 -0.9335 -0.3587
vn -0.0000 -0.9986 0.0527
vn 0.0000 -0.9660 -0.2584
vn 0.0000 -0.9986 -0.0527
f 1/1/1 2/2/1 3/3/1
f 2/2/1 1/1/1 4/4/1
f 4/4/1 1/1/1 7/5/1
f 4/4/1 7/5/1 11/6/1
f 11/6/1 7/5/1 15/7/1
f 11/6/1 15/7/1 24/8/1
f 24/8/1 15/7/1 30/9/1
f 24/8/1 30/9/1 38/10/1
f 26/11/2 29/12/2 28/13/2
f 29/12/2 26/11/2 33/14/2
f 35/15/2 33/14/2 27/16/2
f 39/17/2 27/16/2 34/18/2
f 29/12/2 33/14/2 35/15/2
f 38/10/1 30/9/1 40/19/1
f 35/15/2 27/16/2 39/17/2
f 39/17/2 34/18/2 44/20/2
f 38/10/1 40/19/1 41/21/1
f 44/20/2 34/18/2 43/22/2
f 41/21/1 40/19/1 49/23/1
f 53/24/2 43/22/2 48/25/2
f 44/20/2 43/22/2 53/24/2
f 41/21/1 49/23/1 50/26/1
f 57/27/2 48/25/2 52/28/2
f 53/24/2 48/25/2 57/27/2
f 50/26/1 49/23/1 55/29/1
f 57/27/2 52/28/2 62/30/2
f 50/26/1 55/29/1 59/31/1
f 62/30/2 52/28/2 61/32/2
f 59/31/1 55/29/1 64/33/1
f 62/30/2 61/32/2 70/34/2
f 59/31/1 64/33/1 67/35/1
f 70/34/2 61/32/2 69/36/2
f 67/35/1 64/33/1 72/37/1
f 67/35/1 72/37/1 73/38/1
f 79/39/2 69/36/2 75/40/2
f 70/34/2 69/36/2 79/39/2
f 2/41/1 5/42/1 3/43/1
f 1/44/1 3/43/1 6/45/1
f 4/46/1 8/47/1 2/41/1
f 3/43/1 5/42/1 9/48/1
f 8/47/1 5/42/1 2/41/1
f 9/48/1 6/45/1 3/43/1
f 10/49/1 1/44/1 6/45/1
f 7/50/1 1/44/1 10/49/1
f 11/51/1 8/47/1 4/46/1
f 5/42/1 12/52/1 9/48/1
f 8/53/3 13/54/4 5/55/5
f 6/56/6 9/57/7 14/58/6
f 6/56/6 14/58/6 10/59/8
f 15/60/1 7/50/1 10/49/1
f 16/61/1 8/47/1 11/51/1
f 17/62/1 9/48/1 12/52/1
f 12/63/9 5/55/5 18/64/10
f 19/65/5 5/55/5 13/54/4
f 13/66/4 8/67/3 20/68/11
f 21/69/12 14/58/6 9/57/7
f 22/70/13 10/59/8 14/58/6
f 23/71/1 15/60/1 10/49/1
f 24/72/1 16/61/1 11/51/1
f 16/73/14 20/68/11 8/67/3
f 17/74/15 12/63/9 25/75/16
f 9/57/7 17/74/15 21/69/12
f 19/65/5 18/64/10 5/55/5
f 18/64/10 25/75/16 12/63/9
f 13/76/2 26/77/2 19/78/2
f 20/79/2 27/80/2 13/76/2
f 21/81/2 28/82/2 14/83/2
f 22/84/2 14/83/2 29/85/2
f 10/86/8 22/87/13 23/88/17
f 30/89/1 15/60/1 23/71/1
f 31/90/1 16/61/1 24/72/1
f 20/68/11 16/73/14 32/91/18
f 25/75/16 21/69/12 17/74/15
f 19/78/2 21/81/2 18/92/2
f 25/93/2 18/92/2 21/81/2
f 26/77/2 28/82/2 19/78/2
f 33/94/2 26/77/2 13/76/2
f 27/80/2 33/94/2 13/76/2
f 34/95/2 27/80/2 20/79/2
f 29/85/2 14/83/2 28/82/2
f 28/82/2 21/81/2 19/78/2
f 35/96/2 22/84/2 29/85/2
f 36/97/19 23/88/17 22/87/13
f 37/98/1 30/89/1 23/71/1
f 38/99/1 31/90/1 24/72/1
f 31/100/20 32/91/18 16/73/14
f 32/101/2 34/95/2 20/79/2
f 39/102/2 22/84/2 35/96/2
f 36/103/2 22/84/2 39/102/2
f 23/88/17 36/97/19 37/104/21
f 40/105/1 30/89/1 37/98/1
f 41/106/1 31/90/1 38/99/1
f 32/91/18 31/100/20 42/107/22
f 43/108/2 34/95/2 32/101/2
f 44/109/2 36/103/2 39/102/2
f 45/110/23 37/104/21 36/97/19
f 46/111/1 40/105/1 37/98/1
f 47/112/1 31/90/1 41/106/1
f 47/113/24 42/107/22 31/100/20
f 42/114/2 48/115/2 32/101/2
f 48/115/2 43/108/2 32/101/2
f 45/116/2 36/103/2 44/109/2
f 37/104/21 45/110/23 46/117/25
f 49/118/1 40/105/1 46/111/1
f 50/119/1 47/112/1 41/106/1
f 42/107/22 47/113/24 51/120/26
f 52/121/2 48/115/2 42/114/2
f 53/122/2 45/116/2 44/109/2
f 54/123/27 46/117/25 45/110/23
f 55/124/1 49/118/1 46/111/1
f 56/125/1 47/112/1 50/119/1
f 56/126/28 51/120/26 47/113/24
f 51/127/2 52/121/2 42/114/2
f 57/128/2 45/116/2 53/122/2
f 54/129/2 45/116/2 57/128/2
f 46/117/25 54/123/27 58/130/29
f 58/131/1 55/124/1 46/111/1
f 59/132/1 56/125/1 50/119/1
f 51/120/26 56/126/28 60/133/30
f 61/134/2 52/121/2 51/127/2
f 62/135/2 54/129/2 57/128/2
f 63/136/31 58/130/29 54/123/27
f 64/137/1 55/124/1 58/131/1
f 65/138/1 56/125/1 59/132/1
f 65/139/30 60/133/30 56/126/28
f 60/140/2 61/134/2 51/127/2
f 63/141/2 54/129/2 62/135/2
f 58/142/29 63/143/31 66/144/32
f 66/145/1 64/137/1 58/131/1
f 67/146/1 65/138/1 59/132/1
f 65/147/30 68/148/33 60/149/30
f 69/150/2 61/134/2 60/140/2
f 70/151/2 63/141/2 62/135/2
f 71/152/32 66/144/32 63/143/31
f 72/153/1 64/137/1 66/145/1
f 73/154/1 65/138/1 67/146/1
f 74/155/34 60/149/30 68/148/33
f 68/156/1 65/138/1 73/154/1
f 75/157/2 69/150/2 60/140/2
f 71/158/2 63/141/2 70/151/2
f 71/152/32 76/159/35 66/144/32
f 73/154/1 72/153/1 66/145/1
f 68/148/33 77/160/36 74/155/34
f 74/161/2 75/157/2 60/140/2
f 68/156/1 73/154/1 78/162/1
f 79/163/2 71/158/2 70/151/2
f 78/164/37 66/144/32 76/159/35
f 76/165/2 71/158/2 75/157/2
f 78/162/1 73/154/1 66/145/1
f 80/166/38 74/155/34 77/160/36
f 77/167/1 68/156/1 78/162/1
f 74/161/2 76/165/2 75/157/2
f 75/157/2 71/158/2 79/163/2
f 76/159/35 80/166/38 78/164/37
f 77/160/36 78/164/37 80/166/38
f 80/168/2 76/165/2 74/161/2
