# Blender v2.82 (sub 7) OBJ File: '19203.blend'
# www.blender.org
mtllib default.mtl
usemtl default
v -0.602875 -0.427830 -0.561129
v -0.602875 -0.427830 -0.541228
v -0.602875 -0.429406 -0.551179
v -0.602875 -0.423257 -0.532252
v -0.602875 -0.428545 -0.528410
v -0.602875 -0.428545 -0.573947
v -0.602875 -0.423257 -0.570105
v -0.602875 -0.419975 -0.519840
v -0.602875 -0.434047 -0.563149
v -0.602875 -0.419975 -0.582517
v -0.602875 -0.416133 -0.525128
v -0.602875 -0.434047 -0.539208
v -0.633541 -0.419975 -0.519840
v -0.633541 -0.428545 -0.573947
v -0.602875 -0.416133 -0.577229
v -0.602875 -0.409177 -0.514338
v -0.602875 -0.435943 -0.551179
v -0.633541 -0.434047 -0.539208
v -0.633541 -0.428545 -0.528410
v -0.633541 -0.409177 -0.514338
v -0.633541 -0.434047 -0.563149
v -0.633541 -0.419975 -0.582517
v -0.602875 -0.409177 -0.588019
v -0.602875 -0.407157 -0.520555
v -0.633541 -0.435943 -0.551179
v -0.633541 -0.427830 -0.541228
v -0.633541 -0.416133 -0.525128
v -0.633541 -0.429406 -0.551179
v -0.633541 -0.427830 -0.561129
v -0.602875 -0.407157 -0.581803
v -0.602875 -0.397206 -0.512442
v -0.633541 -0.397206 -0.512442
v -0.633541 -0.423257 -0.532252
v -0.633541 -0.407157 -0.520555
v -0.633541 -0.423257 -0.570105
v -0.633541 -0.409177 -0.588019
v -0.602875 -0.397206 -0.589915
v -0.602875 -0.397206 -0.518979
v -0.633541 -0.416133 -0.577229
v -0.602875 -0.397206 -0.583378
v -0.602875 -0.387256 -0.520555
v -0.633541 -0.385236 -0.514338
v -0.633541 -0.397206 -0.518979
v -0.633541 -0.407157 -0.581803
v -0.633541 -0.397206 -0.589915
v -0.602875 -0.385236 -0.588019
v -0.602875 -0.385236 -0.514338
v -0.633541 -0.387256 -0.520555
v -0.602875 -0.387256 -0.581803
v -0.602875 -0.378280 -0.525128
v -0.633541 -0.374438 -0.519840
v -0.633541 -0.378280 -0.525128
v -0.633541 -0.397206 -0.583378
v -0.633541 -0.385236 -0.588019
v -0.602875 -0.378280 -0.577229
v -0.602875 -0.374438 -0.519840
v -0.633541 -0.387256 -0.581803
v -0.602875 -0.374438 -0.582517
v -0.602875 -0.371156 -0.532252
v -0.633541 -0.365868 -0.528410
v -0.633541 -0.371156 -0.532252
v -0.633541 -0.378280 -0.577229
v -0.633541 -0.374438 -0.582517
v -0.602875 -0.371156 -0.570105
v -0.602875 -0.365868 -0.528410
v -0.602875 -0.365868 -0.573947
v -0.602875 -0.366582 -0.541228
v -0.602875 -0.360366 -0.539208
v -0.633541 -0.366582 -0.541228
v -0.633541 -0.371156 -0.570105
v -0.633541 -0.365868 -0.573947
v -0.602875 -0.366582 -0.561129
v -0.602875 -0.365007 -0.551179
v -0.633541 -0.360366 -0.539208
v -0.633541 -0.365007 -0.551179
v -0.633541 -0.360366 -0.563149
v -0.602875 -0.358470 -0.551179
v -0.602875 -0.360366 -0.563149
v -0.633541 -0.366582 -0.561129
v -0.633541 -0.358470 -0.551179
vt 0.682375 0.906693
vt 0.677783 0.907429
vt 0.680021 0.906693
vt 0.675878 0.908829
vt 0.684613 0.907429
vt 0.674495 0.910757
vt 0.686517 0.908830
vt 0.673767 0.913023
vt 0.687900 0.910758
vt 0.673767 0.915406
vt 0.647917 0.921001
vt 0.651204 0.917673
vt 0.649821 0.919601
vt 0.645678 0.921738
vt 0.651932 0.915407
vt 0.643325 0.921738
vt 0.651932 0.913024
vt 0.641086 0.921001
vt 0.688627 0.913025
vt 0.651204 0.910757
vt 0.674494 0.917672
vt 0.639182 0.919601
vt 0.688627 0.915407
vt 0.649821 0.908830
vt 0.637799 0.917673
vt 0.675877 0.919600
vt 0.647917 0.907429
vt 0.637071 0.915407
vt 0.687900 0.917674
vt 0.645678 0.906693
vt 0.677781 0.921001
vt 0.637071 0.913024
vt 0.686516 0.919601
vt 0.643325 0.906693
vt 0.680020 0.921738
vt 0.637799 0.910757
vt 0.684612 0.921002
vt 0.682373 0.921738
vt 0.641086 0.907429
vt 0.639182 0.908830
vt 0.821762 0.915550
vt 0.819763 0.917813
vt 0.823667 0.914149
vt 0.825050 0.912221
vt 0.827286 0.910197
vt 0.819524 0.916286
vt 0.816932 0.917813
vt 0.826411 0.912923
vt 0.827286 0.907330
vt 0.825777 0.909955
vt 0.817170 0.916286
vt 0.822456 0.916927
vt 0.103129 0.928375
vt 0.110293 0.928375
vt 0.103129 0.925648
vt 0.103129 0.916051
vt 0.103129 0.917736
vt 0.110293 0.916051
vt 0.090697 0.916051
vt 0.083533 0.916051
vt 0.090697 0.917736
vt 0.825777 0.907572
vt 0.814239 0.916927
vt 0.824747 0.915242
vt 0.103129 0.922782
vt 0.110293 0.922782
vt 0.110293 0.925648
vt 0.110293 0.930694
vt 0.110293 0.917736
vt 0.083533 0.917736
vt 0.826411 0.904604
vt 0.814932 0.915550
vt 0.103129 0.930694
vt 0.103129 0.920055
vt 0.110293 0.920055
vt 0.878471 0.899714
vt 0.883301 0.901977
vt 0.881302 0.899714
vt 0.875778 0.900599
vt 0.878709 0.901241
vt 0.887950 0.904604
vt 0.885206 0.903378
vt 0.888825 0.907330
vt 0.888825 0.910197
vt 0.886589 0.905306
vt 0.090697 0.920055
vt 0.825050 0.905306
vt 0.811948 0.915242
vt 0.110293 0.932379
vt 0.883995 0.900599
vt 0.886285 0.902285
vt 0.881063 0.901241
vt 0.876471 0.901977
vt 0.887316 0.907572
vt 0.083533 0.920055
vt 0.824746 0.902285
vt 0.813028 0.914149
vt 0.103129 0.932379
vt 0.873487 0.902285
vt 0.887316 0.909955
vt 0.887950 0.912923
vt 0.090697 0.922782
vt 0.823666 0.903378
vt 0.811645 0.912221
vt 0.816466 0.918141
vt 0.809302 0.918141
vt 0.816466 0.919826
vt 0.874567 0.903378
vt 0.886589 0.912221
vt 0.083533 0.922782
vt 0.822456 0.900600
vt 0.810284 0.912923
vt 0.809302 0.919826
vt 0.871823 0.904604
vt 0.873184 0.905306
vt 0.886285 0.915242
vt 0.090697 0.925648
vt 0.821763 0.901977
vt 0.810917 0.909955
vt 0.816466 0.922145
vt 0.872456 0.907572
vt 0.885205 0.914149
vt 0.083533 0.925648
vt 0.819524 0.901241
vt 0.809409 0.910197
vt 0.809302 0.922145
vt 0.870948 0.907330
vt 0.883301 0.915550
vt 0.883995 0.916927
vt 0.090697 0.928374
vt 0.819763 0.899714
vt 0.810917 0.907572
vt 0.816466 0.924871
vt 0.872456 0.909955
vt 0.881063 0.916286
vt 0.083533 0.928374
vt 0.817170 0.901241
vt 0.809409 0.907330
vt 0.809302 0.924871
vt 0.870948 0.910197
vt 0.881302 0.917813
vt 0.090697 0.930694
vt 0.816932 0.899714
vt 0.811644 0.905306
vt 0.809302 0.927738
vt 0.873183 0.912221
vt 0.878709 0.916286
vt 0.083533 0.930694
vt 0.814932 0.901977
vt 0.813028 0.903378
vt 0.816466 0.927738
vt 0.810284 0.904604
vt 0.874567 0.914149
vt 0.878470 0.917813
vt 0.083533 0.932379
vt 0.809302 0.930464
vt 0.871823 0.912923
vt 0.814239 0.900600
vt 0.876471 0.915550
vt 0.090697 0.932379
vt 0.875778 0.916927
vt 0.816466 0.930464
vt 0.811948 0.902285
vt 0.816466 0.932783
vt 0.809302 0.932783
vt 0.873487 0.915242
vn 1.0000 -0.0000 0.0000
vn -1.0000 -0.0000 0.0000
vn 0.0000 -0.5443 0.8389
vn 0.0000 -0.6296 0.7769
vn 0.0000 -0.8090 0.5878
vn 0.0000 -0.8090 -0.5878
vn -0.0000 -0.9335 -0.3587
vn 0.0000 -0.6296 -0.7769
vn 0.0000 -0.9660 0.2584
vn -0.0000 -0.9334 0.3587
vn 0.0000 -0.3587 0.9335
vn 0.0000 -0.9660 -0.2584
vn 0.0000 -0.5443 -0.8389
vn 0.0000 -0.2584 0.9660
vn 0.0000 -0.9986 -0.0527
vn 0.0000 -0.9986 0.0527
vn 0.0000 -0.3587 -0.9334
vn 0.0000 -0.0527 0.9986
vn 0.0000 -0.2584 -0.9660
vn 0.0000 0.0527 0.9986
vn 0.0000 -0.0527 -0.9986
vn 0.0000 0.2585 0.9660
vn 0.0000 0.0527 -0.9986
vn 0.0000 0.3587 0.9335
vn 0.0000 0.2584 -0.9660
vn 0.0000 0.5443 0.8389
vn 0.0000 0.3587 -0.9335
vn 0.0000 0.6296 0.7769
vn 0.0000 0.5443 -0.8389
vn 0.0000 0.8090 0.5878
vn 0.0000 0.6296 -0.7769
vn 0.0000 0.8090 -0.5878
vn -0.0000 0.9335 0.3587
vn -0.0000 0.9660 0.2584
vn -0.0000 0.9335 -0.3587
vn 0.0000 0.9986 0.0527
vn 0.0000 0.9660 -0.2584
vn 0.0000 0.9986 -0.0527
f 1/1/1 2/2/1 3/3/1
f 2/2/1 1/1/1 4/4/1
f 4/4/1 1/1/1 7/5/1
f 4/4/1 7/5/1 11/6/1
f 11/6/1 7/5/1 15/7/1
f 11/6/1 15/7/1 24/8/1
f 24/8/1 15/7/1 30/9/1
f 24/8/1 30/9/1 38/10/1
f 26/11/2 29/12/2 28/13/2
f 29/12/2 26/11/2 33/14/2
f 35/15/2 33/14/2 27/16/2
f 39/17/2 27/16/2 34/18/2
f 29/12/2 33/14/2 35/15/2
f 38/10/1 30/9/1 40/19/1
f 35/15/2 27/16/2 39/17/2
f 39/17/2 34/18/2 44/20/2
f 38/10/1 40/19/1 41/21/1
f 44/20/2 34/18/2 43/22/2
f 41/21/1 40/19/1 49/23/1
f 53/24/2 43/22/2 48/25/2
f 44/20/2 43/22/2 53/24/2
f 41/21/1 49/23/1 50/26/1
f 57/27/2 48/25/2 52/28/2
f 53/24/2 48/25/2 57/27/2
f 50/26/1 49/23/1 55/29/1
f 57/27/2 52/28/2 62/30/2
f 50/26/1 55/29/1 59/31/1
f 62/30/2 52/28/2 61/32/2
f 59/31/1 55/29/1 64/33/1
f 62/30/2 61/32/2 70/34/2
f 59/31/1 64/33/1 67/35/1
f 70/34/2 61/32/2 69/36/2
f 67/35/1 64/33/1 72/37/1
f 67/35/1 72/37/1 73/38/1
f 79/39/2 69/36/2 75/40/2
f 70/34/2 69/36/2 79/39/2
f 2/41/1 5/42/1 3/43/1
f 1/44/1 3/43/1 6/45/1
f 4/46/1 8/47/1 2/41/1
f 3/43/1 5/42/1 9/48/1
f 8/47/1 5/42/1 2/41/1
f 9/48/1 6/45/1 3/43/1
f 10/49/1 1/44/1 6/45/1
f 7/50/1 1/44/1 10/49/1
f 11/51/1 8/47/1 4/46/1
f 5/42/1 12/52/1 9/48/1
f 8/53/3 13/54/4 5/55/5
f 6/56/6 9/57/7 14/58/6
f 6/59/6 14/60/6 10/61/8
f 15/62/1 7/50/1 10/49/1
f 16/63/1 8/47/1 11/51/1
f 17/64/1 9/48/1 12/52/1
f 12/65/9 5/55/5 18/66/10
f 19/67/5 5/55/5 13/54/4
f 13/54/4 8/53/3 20/68/11
f 21/69/12 14/58/6 9/57/7
f 22/70/13 10/61/8 14/60/6
f 23/71/1 15/62/1 10/49/1
f 24/72/1 16/63/1 11/51/1
f 16/73/14 20/68/11 8/53/3
f 17/74/15 12/65/9 25/75/16
f 9/57/7 17/74/15 21/69/12
f 19/67/5 18/66/10 5/55/5
f 18/66/10 25/75/16 12/65/9
f 13/76/2 26/77/2 19/78/2
f 20/79/2 27/80/2 13/76/2
f 21/81/2 28/82/2 14/83/2
f 22/84/2 14/83/2 29/85/2
f 10/61/8 22/70/13 23/86/17
f 30/87/1 15/62/1 23/71/1
f 31/88/1 16/63/1 24/72/1
f 20/68/11 16/73/14 32/89/18
f 25/75/16 21/69/12 17/74/15
f 19/78/2 21/81/2 18/90/2
f 25/91/2 18/90/2 21/81/2
f 26/77/2 28/82/2 19/78/2
f 33/92/2 26/77/2 13/76/2
f 27/80/2 33/92/2 13/76/2
f 34/93/2 27/80/2 20/79/2
f 29/85/2 14/83/2 28/82/2
f 28/82/2 21/81/2 19/78/2
f 35/94/2 22/84/2 29/85/2
f 36/95/19 23/86/17 22/70/13
f 37/96/1 30/87/1 23/71/1
f 38/97/1 31/88/1 24/72/1
f 31/98/20 32/89/18 16/73/14
f 32/99/2 34/93/2 20/79/2
f 39/100/2 22/84/2 35/94/2
f 36/101/2 22/84/2 39/100/2
f 23/86/17 36/95/19 37/102/21
f 40/103/1 30/87/1 37/96/1
f 41/104/1 31/88/1 38/97/1
f 32/105/18 31/106/20 42/107/22
f 43/108/2 34/93/2 32/99/2
f 44/109/2 36/101/2 39/100/2
f 45/110/23 37/102/21 36/95/19
f 46/111/1 40/103/1 37/96/1
f 47/112/1 31/88/1 41/104/1
f 47/113/24 42/107/22 31/106/20
f 42/114/2 48/115/2 32/99/2
f 48/115/2 43/108/2 32/99/2
f 45/116/2 36/101/2 44/109/2
f 37/102/21 45/110/23 46/117/25
f 49/118/1 40/103/1 46/111/1
f 50/119/1 47/112/1 41/104/1
f 42/107/22 47/113/24 51/120/26
f 52/121/2 48/115/2 42/114/2
f 53/122/2 45/116/2 44/109/2
f 54/123/27 46/117/25 45/110/23
f 55/124/1 49/118/1 46/111/1
f 56/125/1 47/112/1 50/119/1
f 56/126/28 51/120/26 47/113/24
f 51/127/2 52/121/2 42/114/2
f 57/128/2 45/116/2 53/122/2
f 54/129/2 45/116/2 57/128/2
f 46/117/25 54/123/27 58/130/29
f 58/131/1 55/124/1 46/111/1
f 59/132/1 56/125/1 50/119/1
f 51/120/26 56/126/28 60/133/30
f 61/134/2 52/121/2 51/127/2
f 62/135/2 54/129/2 57/128/2
f 63/136/31 58/130/29 54/123/27
f 64/137/1 55/124/1 58/131/1
f 65/138/1 56/125/1 59/132/1
f 65/139/30 60/133/30 56/126/28
f 60/140/2 61/134/2 51/127/2
f 63/141/2 54/129/2 62/135/2
f 58/130/29 63/136/31 66/142/32
f 66/143/1 64/137/1 58/131/1
f 67/144/1 65/138/1 59/132/1
f 65/139/30 68/145/33 60/133/30
f 69/146/2 61/134/2 60/140/2
f 70/147/2 63/141/2 62/135/2
f 71/148/32 66/142/32 63/136/31
f 72/149/1 64/137/1 66/143/1
f 73/150/1 65/138/1 67/144/1
f 74/151/34 60/133/30 68/145/33
f 68/152/1 65/138/1 73/150/1
f 75/153/2 69/146/2 60/140/2
f 71/154/2 63/141/2 70/147/2
f 71/148/32 76/155/35 66/142/32
f 73/150/1 72/149/1 66/143/1
f 68/145/33 77/156/36 74/151/34
f 74/157/2 75/153/2 60/140/2
f 68/152/1 73/150/1 78/158/1
f 79/159/2 71/154/2 70/147/2
f 78/160/37 66/142/32 76/155/35
f 76/161/2 71/154/2 75/153/2
f 78/158/1 73/150/1 66/143/1
f 80/162/38 74/151/34 77/156/36
f 77/163/1 68/152/1 78/158/1
f 74/157/2 76/161/2 75/153/2
f 75/153/2 71/154/2 79/159/2
f 76/164/35 80/162/38 78/165/37
f 77/156/36 78/165/37 80/162/38
f 80/166/2 76/161/2 74/157/2
